<?xml version="1.0" encoding="UTF-8"?>
<svg id="Layer_1" xmlns="http://www.w3.org/2000/svg" version="1.1" viewBox="0 0 512 512">
  <!-- Generator: Adobe Illustrator 30.1.0, SVG Export Plug-In . SVG Version: 2.1.1 Build 136)  -->
  <defs>
    <style>
      .st0 {
        fill: #215241;
      }
    </style>
  </defs>
  <path class="st0" d="M131.28,427.77c2.35-.61,3.38-.61,9.01-4.2,0,0,17-9.21,28.36-16.38,0,0,11.26-6.55,27.85-15.36,0,0,15.77-5.32,39.62-34.81,0,0,39.11-46.38,51.71-63.17,0,0,43.21-54.16,60.61-92.05,0,0,18.74-33.17,31.94-79.96,0,0,9.62-26.72,28.77-55.49,0,0,5.43-7.58,6.04-10.24,0,0,.61-1.23,2.05-2.97,0,0,7.68-9.32,10.44-15.05,0,0,7.68-9.52,15.36-17,0,0,19.04-17.51,22.01-21.09,0,0-60.41,19.35-161.16,146.41,0,0-20.17,28.05-39.11,41.57,0,0-48.22,49.45-56.21,53.75,0,0-13.82,15.56-25.19,26.72,0,0-41.36,34.4-57.85,75.36,0,0-8.7,14.33-19.66,83.24,0,0-5.43,17.2-8.19,21.6,0,0-7.99,22.01-10.14,26.83,0,0-5.12,11.67-11.88,18.84,0,0-12.18,15.56-24.88,10.44,0,0-4.5-.82-3.79,1.23,0,0,9.11,6.76,18.53,5.94,0,0,1.13,1.02,12.8-11.67,0,0,9.62-9.11,16.18-24.88,0,0,7.37-15.97,8.29-19.76,0,0,22.42-63.79,27.34-65.42,0,0,64.09-92.86,138.02-146.11,0,0,33.58-31.74,62.87-79.35,0,0,5.53-3.07,1.23,3.07,0,0-21.4,48.84-102.59,117.95,0,0-48.22,36.65-106.79,142.93,0,0,5.53-.2,7.88-.92h.51Z"/>
</svg>